<svg width="40" height="39" viewBox="0 0 40 39" fill="none" xmlns="http://www.w3.org/2000/svg">
<path d="M39.2858 31.4665C39.2858 32.2987 38.6113 32.9732 37.7791 32.9732H33.259V37.4933C33.259 38.3255 32.5845 39 31.7523 39C30.9201 39 30.2456 38.3255 30.2456 37.4933V32.9732H25.7255C24.8933 32.9732 24.2188 32.2987 24.2188 31.4665C24.2188 30.6343 24.8933 29.9598 25.7255 29.9598H30.2456V25.4397C30.2456 24.6075 30.9201 23.933 31.7523 23.933C32.5845 23.933 33.259 24.6075 33.259 25.4397V29.9598H37.7791C38.6113 29.9598 39.2858 30.6343 39.2858 31.4665ZM27.2322 37.4933C27.2322 38.3255 26.5577 39 25.7255 39H5.23445C2.74192 39 0.714355 36.9724 0.714355 34.4799V31.6925C0.714355 29.0923 1.82966 26.6215 3.77395 24.9133C5.34804 23.5299 8.36261 21.4797 13.2088 20.4141C10.5603 18.3739 8.85052 15.1721 8.85052 11.5781C8.85052 5.43039 13.8523 0.428574 20.0001 0.428574C26.1478 0.428574 31.1496 5.43039 31.1496 11.5781C31.1496 17.7259 26.1478 22.7277 20.0001 22.7277C11.7206 22.7277 7.28526 25.8391 5.76297 27.1768C4.46962 28.3133 3.72775 29.9589 3.72775 31.6925V34.4799C3.72775 35.3107 4.4037 35.9866 5.23445 35.9866H25.7255C26.5577 35.9866 27.2322 36.6611 27.2322 37.4933ZM20.0001 19.7143C24.4863 19.7143 28.1362 16.0644 28.1362 11.5781C28.1362 7.09188 24.4863 3.44197 20.0001 3.44197C15.5138 3.44197 11.8639 7.09188 11.8639 11.5781C11.8639 16.0644 15.5138 19.7143 20.0001 19.7143Z" fill="#C5C5C5"/>
</svg>
