<svg width="35" height="39" viewBox="0 0 35 39" fill="none" xmlns="http://www.w3.org/2000/svg">
<path d="M25.3144 18.6857L19.1429 23.0571V18.4286L9.02864 26.2286C8.42864 26.6571 8.34293 27.4286 8.7715 28.0286C9.02864 28.3714 9.3715 28.5429 9.80007 28.5429C10.0572 28.5429 10.3144 28.4571 10.5715 28.2857L16.5715 23.6571V28.0286L26.7715 20.7429C27.3715 20.3143 27.4572 19.5429 27.0286 18.9429C26.6858 18.4286 25.9144 18.2571 25.3144 18.6857ZM31.5715 7.2H20.0858L25.4001 2.65714C25.9144 2.22857 26.0001 1.37143 25.5715 0.857145C25.3144 0.600002 24.8858 0.428574 24.5429 0.428574C24.2858 0.428574 23.9429 0.514288 23.6858 0.771431L16.6572 6.77143C16.5715 6.85714 16.4858 6.94286 16.4858 7.02857C16.4858 6.94286 16.4001 6.94286 16.4001 6.85714L12.4572 2.22857C12.2001 1.97143 11.8572 1.8 11.5144 1.8C11.2572 1.8 10.9144 1.88572 10.6572 2.14286C10.0572 2.57143 9.9715 3.34286 10.4858 3.85714L13.3144 7.2H4.05721C2.1715 7.2 0.714355 8.74286 0.714355 10.5429V35.6571C0.714355 37.5429 2.25721 39 4.05721 39H31.5715C33.4572 39 34.9144 37.4571 34.9144 35.6571V10.6286C34.9144 8.74286 33.3715 7.2 31.5715 7.2ZM32.3429 35.7429C32.3429 36.1714 32.0001 36.5143 31.5715 36.5143H4.05721C3.62864 36.5143 3.28578 36.1714 3.28578 35.7429V10.6286C3.28578 10.2 3.62864 9.85714 4.05721 9.85714H31.5715C32.0001 9.85714 32.3429 10.2 32.3429 10.6286V35.7429Z" fill="#C5C5C5"/>
</svg>
