<svg width="40" height="40" viewBox="0 0 40 40" fill="none" xmlns="http://www.w3.org/2000/svg">
<g clip-path="url(#clip0)">
<path d="M33.259 1.92746H6.74114C3.41788 1.92746 0.714355 4.63098 0.714355 7.95424V29.048C0.714355 32.3713 3.41788 35.0748 6.74114 35.0748H21.0548C21.6295 35.0748 22.1542 34.7478 22.4076 34.2317C22.6606 33.7158 22.5982 33.1005 22.2463 32.6461L18.3053 27.5528L29.2283 13.6591L36.2724 22.0625V24.6032C36.2724 25.4355 36.9469 26.1099 37.7791 26.1099C38.6113 26.1099 39.2858 25.4355 39.2858 24.6032V7.95424C39.2858 4.63098 36.5823 1.92746 33.259 1.92746V1.92746ZM30.3457 10.3011C30.054 9.95327 29.6217 9.75463 29.1674 9.76257C28.7133 9.76964 28.2869 9.98093 28.0065 10.3379L16.4037 25.0956L12.4528 19.9899C12.1673 19.6208 11.7274 19.4051 11.2612 19.4051C11.2606 19.4051 11.2598 19.4051 11.2592 19.4051C10.7922 19.4057 10.3516 19.6229 10.0671 19.9931L6.75115 24.3037C6.24381 24.9634 6.36712 25.9092 7.02659 26.4166C7.68636 26.9242 8.63216 26.8006 9.1395 26.1411L11.2648 23.3785L17.9837 32.0614H6.74114C5.07966 32.0614 3.72775 30.7095 3.72775 29.048V7.95424C3.72775 6.29276 5.07966 4.94085 6.74114 4.94085H33.259C34.9205 4.94085 36.2724 6.29276 36.2724 7.95424V17.3717L30.3457 10.3011ZM11.2612 7.35156C8.76871 7.35156 6.74114 9.37913 6.74114 11.8717C6.74114 14.3642 8.76871 16.3917 11.2612 16.3917C13.7538 16.3917 15.7813 14.3642 15.7813 11.8717C15.7813 9.37913 13.7538 7.35156 11.2612 7.35156ZM11.2612 13.3784C10.4305 13.3784 9.75454 12.7024 9.75454 11.8717C9.75454 11.0409 10.4305 10.365 11.2612 10.365C12.092 10.365 12.7679 11.0409 12.7679 11.8717C12.7679 12.7024 12.092 13.3784 11.2612 13.3784ZM39.2858 30.63C39.2858 31.4622 38.6113 32.1367 37.7791 32.1367H33.6357V36.2801C33.6357 37.1124 32.9612 37.7868 32.129 37.7868C31.2968 37.7868 30.6223 37.1124 30.6223 36.2801V32.1367H26.4789C25.6467 32.1367 24.9722 31.4622 24.9722 30.63C24.9722 29.7978 25.6467 29.1233 26.4789 29.1233H30.6223V24.9799C30.6223 24.1477 31.2968 23.4732 32.129 23.4732C32.9612 23.4732 33.6357 24.1477 33.6357 24.9799V29.1233H37.7791C38.6113 29.1233 39.2858 29.7978 39.2858 30.63Z" fill="#C5C5C5"/>
</g>
<defs>
<clipPath id="clip0">
<rect x="0.714355" y="0.571428" width="38.5714" height="38.5714" fill="white"/>
</clipPath>
</defs>
</svg>
