<svg width="40" height="40" viewBox="0 0 40 40" fill="none" xmlns="http://www.w3.org/2000/svg">
<path fill-rule="evenodd" clip-rule="evenodd" d="M17.8755 4.48677V0.571428C13.9893 0.959111 10.4512 2.50975 7.58981 4.85501L10.3352 7.62675C12.4813 5.95982 15.0528 4.83566 17.8755 4.48677ZM4.84439 7.60731L7.6091 10.3597C5.94643 12.5112 4.82499 15.089 4.47698 17.9189H0.571533C0.958244 14.023 2.50491 10.476 4.84439 7.60731ZM21.839 24.1407L15.9421 28.5793V11.135L21.839 15.5735L27.5425 19.8571L21.839 24.1407ZM21.839 4.48668V0.571428C31.564 1.59874 39.1429 9.85572 39.1429 19.8571C39.1429 29.8586 31.564 38.1156 21.8389 39.1428V35.2275C29.4179 34.2197 35.2761 27.7071 35.2761 19.8571C35.2761 12.0072 29.4179 5.49464 21.839 4.48668ZM4.47698 21.7954H0.571533C0.958244 25.6913 2.50491 29.2383 4.84439 32.1069L7.60919 29.3351C5.94643 27.2031 4.82499 24.6253 4.47698 21.7954ZM17.8755 39.1429C14.0087 38.7552 10.4512 37.2045 7.58981 34.8593L10.3352 32.0876C12.4813 33.7546 15.0527 34.8787 17.8755 35.2276V39.1429Z" fill="#C5C5C5"/>
</svg>
